<?xml version="1.0" encoding="UTF-8"?>
<svg width="256px" height="256px" viewBox="0 0 256 256" version="1.1" xmlns="http://www.w3.org/2000/svg" xmlns:xlink="http://www.w3.org/1999/xlink">
    <title>InsC</title>
    <defs>
        <rect id="path-1" x="0" y="0" width="256" height="256" rx="36"></rect>
    </defs>
    <g id="InsC" stroke="none" stroke-width="1" fill="none" fill-rule="evenodd">
        <mask id="mask-2" fill="white">
            <use xlink:href="#path-1"></use>
        </mask>
        <use id="Rectangle" fill="#FCD813" xlink:href="#path-1"></use>
        <path d="M-2.27373675e-13,0 L105,0 L105,23 C105,42.882251 88.882251,59 69,59 L-2.27373675e-13,59 L-2.27373675e-13,59 L-2.27373675e-13,0 Z" id="Rectangle" fill="#AF30BC" mask="url(#mask-2)"></path>
        <text mask="url(#mask-2)" font-family="PingFangSC-Semibold, PingFang SC" font-size="36" font-weight="500" fill="#FFFFFF">
            <tspan x="14.79" y="43">InsC</tspan>
        </text>
        <path d="M48,79 L207,79 C219.702549,79 230,89.2974508 230,102 L230,178.904711 C230,191.607261 219.702549,201.904711 207,201.904711 L97.8013632,201.904711 L97.8013632,201.904711 L59.6923077,235 L59.6923077,201.904711 L48,201.904711 C35.2974508,201.904711 25,191.607261 25,178.904711 L25,102 C25,89.2974508 35.2974508,79 48,79 Z" id="Rectangle" stroke="#000000" stroke-width="10" stroke-linecap="round" stroke-linejoin="round" mask="url(#mask-2)"></path>
        <g id="Group-6" mask="url(#mask-2)" stroke="#000000" stroke-linecap="round" stroke-linejoin="round" stroke-width="10">
            <g transform="translate(98.000000, 113.000000)">
                <polyline id="Path-4" points="0 41 29.5 55 59 41"></polyline>
                <line x1="29.5" y1="0.319277108" x2="29.5" y2="52.3614458" id="Line-3" stroke-dasharray="10,20"></line>
            </g>
        </g>
    </g>
</svg>